<svg width="149" height="40" viewBox="0 0 149 40" fill="none" xmlns="http://www.w3.org/2000/svg">
<rect x="0.5" y="0.5" width="148" height="39" rx="7.5" fill="#212121"/>
<rect x="0.5" y="0.5" width="148" height="39" rx="7.5" stroke="#EBEBEB"/>
<g clip-path="url(#clip0_885_2435)">
<path d="M125 19.0159C124.135 20.8326 123.032 21.4395 120.721 21.2629C120.007 21.2084 119.308 20.9774 118.602 20.8246C118.197 20.737 118.007 20.5086 118.068 20.0823C118.101 19.8446 118.074 19.5989 118.074 19.4037C119.091 19.563 120.049 19.7423 121.016 19.8499C121.423 19.895 121.859 19.8326 122.263 19.7383C122.89 19.5896 123.239 19.1566 123.263 18.579C123.288 18.0292 122.972 17.6772 122.483 17.4767C121.769 17.1845 121.04 16.9229 120.321 16.6387C120.041 16.5285 119.758 16.4116 119.498 16.2629C118.503 15.6945 118.099 14.8286 118.207 13.7224C118.304 12.7304 118.9 12.073 119.792 11.7118C121.277 11.1102 122.768 11.2987 124.227 11.8539C124.326 11.891 124.44 12.0318 124.448 12.1314C124.475 12.4714 124.459 12.814 124.459 13.1739C123.742 13.0451 123.089 12.8831 122.424 12.8207C121.911 12.7729 121.379 12.8047 120.867 12.8831C120.365 12.9601 120.018 13.2748 119.932 13.7981C119.849 14.2961 120.04 14.7078 120.581 14.9628C121.279 15.2908 121.999 15.575 122.724 15.8393C123.755 16.2138 124.637 16.729 125 17.826V19.0159Z" fill="white"/>
<path d="M93.6529 8.99986V11.6413H96.4538V13.0477H93.6732C93.6597 13.2695 93.6434 13.4288 93.6434 13.5882C93.6421 15.1406 93.6394 16.6931 93.6434 18.2442C93.6461 19.3744 94.0712 19.7515 95.2408 19.6572C95.6591 19.624 96.0747 19.5762 96.5634 19.5284C96.5634 19.8883 96.5892 20.2309 96.5499 20.5656C96.5364 20.6838 96.3699 20.8697 96.2602 20.879C95.36 20.956 94.4448 21.1141 93.5581 21.0224C92.5252 20.9149 91.8849 20.1579 91.8389 19.1101C91.7644 17.3969 91.7807 15.6785 91.7604 13.9627C91.7577 13.6851 91.7604 13.4089 91.7604 13.0795H90.0723V11.9042C90.6327 11.8232 91.2067 11.7409 91.8226 11.6519C91.9269 10.7608 92.0298 9.88034 92.1327 8.99854C92.6403 8.99854 93.1466 8.99854 93.6543 8.99854L93.6529 8.99986Z" fill="white"/>
<path d="M70.0152 9V11.6282H72.8147V13.0478H70.072C70.049 13.2218 70.0179 13.3466 70.0179 13.4714C70.0152 15.0571 70.0152 16.6441 70.0152 18.2297C70.0152 18.2457 70.0152 18.2629 70.0152 18.2789C70.0463 19.3572 70.4673 19.741 71.5652 19.6667C72.0011 19.6374 72.4357 19.5777 72.9419 19.5246C72.9419 19.8898 72.9623 20.247 72.9298 20.5989C72.9203 20.7025 72.7754 20.8459 72.6631 20.8805C71.7615 21.1607 70.8328 21.2271 69.9123 21.0332C68.8117 20.8021 68.2012 20.0013 68.1917 18.83C68.1781 17.1116 68.1876 15.3931 68.1876 13.676C68.1876 13.498 68.1876 13.3201 68.1876 13.0757H66.4697V11.9017C66.9422 11.8353 67.4038 11.749 67.8695 11.7118C68.1497 11.6892 68.2472 11.5671 68.2702 11.3161C68.3392 10.5432 68.4191 9.77158 68.4936 9C69.0012 9 69.5075 9 70.0152 9Z" fill="white"/>
<path d="M34.9901 18.7373C35.5085 16.5872 36.0257 14.4371 36.5442 12.2871C36.9124 10.7598 36.7621 11.0215 38.2038 10.9736C38.7359 10.955 38.9565 11.1715 39.0689 11.6523C39.5955 13.9033 40.1437 16.1503 40.6866 18.3986C40.7245 18.558 40.7705 18.7147 40.9005 18.886C41.1063 18.1144 41.3147 17.3442 41.5191 16.5726C41.9564 14.9285 42.4031 13.2871 42.8228 11.6377C42.9446 11.1582 43.1775 10.9126 43.7027 10.979C43.8855 11.0029 44.0736 10.9816 44.2605 10.9829C44.9116 10.9856 44.9901 11.0839 44.7911 11.7173C44.2889 13.3083 43.7772 14.8966 43.2682 16.4863C42.8553 17.7771 42.4275 19.0626 42.0363 20.3601C41.8995 20.8116 41.6708 21.0082 41.1739 20.9949C39.716 20.955 39.827 21.1914 39.4574 19.6735C38.9701 17.6682 38.4651 15.6669 37.9669 13.6629C37.9439 13.5713 37.906 13.4823 37.7855 13.3853C37.5689 14.2658 37.3496 15.1463 37.1344 16.0281C36.7892 17.4398 36.448 18.8528 36.1042 20.2645C35.9472 20.9099 35.8483 20.9909 35.1755 20.9856C33.7947 20.9736 33.922 21.1782 33.4901 19.7758C32.6779 17.1383 31.8575 14.5049 31.0399 11.8687C30.9911 11.7107 30.9383 11.5527 30.9058 11.392C30.853 11.1343 30.9343 10.967 31.2402 10.9829C31.2565 10.9829 31.2741 10.9829 31.2903 10.9829C32.9635 11.0161 32.7753 10.7094 33.2004 12.3734C33.7216 14.4052 34.259 16.4318 34.7911 18.461C34.8154 18.5513 34.8493 18.639 34.8791 18.7293C34.9156 18.7319 34.9522 18.7359 34.9887 18.7386L34.9901 18.7373Z" fill="white"/>
<path d="M37.6838 30.9999C30.9449 30.9136 25.335 28.9375 20.517 24.8884C20.2896 24.6971 19.7996 24.5085 20.0879 24.1301C20.3424 23.7967 20.6714 24.1593 20.9299 24.3C25.0737 26.5484 29.5072 27.8791 34.2169 28.3598C39.9093 28.9415 45.3852 28.1008 50.6702 25.9893C50.7799 25.9455 50.903 25.8631 51.0019 25.8844C51.2158 25.9295 51.542 25.9866 51.5921 26.1208C51.6571 26.2947 51.5704 26.6334 51.4229 26.7529C50.9829 27.1088 50.4956 27.4156 50.0015 27.6985C46.9731 29.4395 43.6836 30.4156 40.2085 30.8087C39.2379 30.9189 38.2578 30.9587 37.6838 31.0012V30.9999Z" fill="white"/>
<path d="M109.969 20.1635V24.8063H108.181V11.6589C108.613 11.6589 109.061 11.6416 109.506 11.6735C109.599 11.6801 109.707 11.8554 109.756 11.9736C109.821 12.133 109.835 12.3123 109.883 12.534C110.177 12.3388 110.405 12.1742 110.646 12.0281C112.765 10.7399 115.311 11.2844 116.377 13.2923C116.643 13.7943 116.822 14.368 116.913 14.9285C117.12 16.2127 117.079 17.4955 116.577 18.7279C115.38 21.6682 112.241 21.6483 110.526 20.5234C110.376 20.4251 110.225 20.3282 109.972 20.1622L109.969 20.1635ZM112.551 12.8368C111.714 12.8249 110.952 13.0666 110.269 13.5234C110.131 13.6164 110.002 13.8302 109.999 13.9896C109.979 15.5062 109.979 17.0241 109.999 18.5407C110.002 18.7027 110.129 18.9192 110.267 19.0135C110.885 19.4331 111.568 19.6974 112.334 19.7293C113.704 19.7837 114.602 19.1649 114.934 17.8714C115.208 16.7997 115.206 15.7133 114.924 14.6429C114.603 13.4225 113.811 12.8395 112.551 12.8368Z" fill="white"/>
<path d="M27.8951 19.5792C27.7584 19.8156 27.6988 20.0095 27.5689 20.129C26.4588 21.1436 25.1294 21.4398 23.6728 21.1436C22.3881 20.8834 21.649 19.9962 21.4716 18.627C21.3065 17.3548 21.9278 16.1583 23.0772 15.562C24.2942 14.9298 25.5856 15.0002 26.8879 15.1994C27.202 15.2472 27.5134 15.3123 27.8992 15.384C27.9263 14.566 27.9601 13.7957 27.5824 13.0865C27.2683 12.4956 26.6768 12.3336 26.0527 12.2672C25.0008 12.1543 24.0099 12.3893 23.0311 12.7426C22.7699 12.8369 22.449 13.1782 22.1878 12.7731C21.9509 12.4066 22.1688 11.5474 22.5465 11.4239C23.3736 11.1516 24.2102 10.8648 25.0672 10.7333C25.7197 10.6337 26.4182 10.7041 27.0815 10.8023C28.6667 11.0361 29.6306 12.0361 29.7254 13.6018C29.8025 14.8701 29.7633 16.145 29.7673 17.4159C29.77 18.2459 29.8039 19.0666 30.2615 19.809C30.4388 20.0958 30.3576 20.3216 30.0733 20.5261C29.0729 21.2472 28.8346 21.1994 28.2268 20.1144C28.1645 20.0029 28.0914 19.8966 27.8965 19.5832L27.8951 19.5792ZM25.8253 16.3535C25.4191 16.4332 24.9074 16.473 24.4417 16.6363C23.708 16.8953 23.3493 17.631 23.467 18.4531C23.5794 19.2366 24.0248 19.6496 24.8709 19.7545C26.651 19.975 28.0725 18.6576 27.9019 16.9298C27.8911 16.8156 27.7354 16.6456 27.6217 16.6244C27.0626 16.5168 26.4954 16.4491 25.8253 16.3535Z" fill="white"/>
<path d="M79.9462 15.8205C79.9462 15.2627 79.9896 14.7328 79.9368 14.2122C79.8488 13.3437 79.3871 12.944 78.4815 12.851C77.3376 12.7342 76.2302 12.9188 75.135 13.2189C74.9753 13.2627 74.8142 13.3052 74.5936 13.3636C74.5936 12.9878 74.5692 12.6452 74.6057 12.3092C74.6193 12.1844 74.7546 12.0144 74.8751 11.9679C76.4834 11.3437 78.1444 11.1472 79.8325 11.5589C81.082 11.863 81.6953 12.6664 81.7318 14.1512C81.786 16.3796 81.7426 18.6093 81.7386 20.8377C81.7386 20.8683 81.7169 20.8975 81.6912 20.9626H80.2007C80.1466 20.6983 80.0951 20.442 80.0275 20.1113C79.8718 20.2109 79.7418 20.2919 79.6132 20.3756C78.6263 21.013 77.565 21.369 76.3629 21.2122C75.1066 21.0489 74.2199 20.2853 73.9993 19.1644C73.738 17.8391 74.2375 16.6744 75.3408 16.0529C76.3439 15.4885 77.4364 15.4779 78.5411 15.5947C78.9918 15.6425 79.4386 15.7368 79.9476 15.8192L79.9462 15.8205ZM79.9679 17.0396C79.6498 16.9759 79.356 16.8656 79.0649 16.8696C78.296 16.8802 77.5095 16.851 76.7663 17.0064C76.0583 17.1538 75.7117 17.8776 75.8106 18.608C75.9107 19.349 76.3114 19.7594 77.0926 19.8444C78.1227 19.9546 79.0067 19.5628 79.8257 19.0024C79.9043 18.948 79.9598 18.8099 79.9611 18.7089C79.9747 18.1658 79.9679 17.6226 79.9679 17.0396Z" fill="white"/>
<path d="M104.101 11.6678H105.903V20.9932C105.472 20.9932 105.021 21.0065 104.575 20.9812C104.489 20.9759 104.381 20.8245 104.343 20.7196C104.271 20.5217 104.244 20.3093 104.192 20.0702C103.773 20.3 103.4 20.5204 103.012 20.7143C102.185 21.1287 101.304 21.3119 100.373 21.2854C98.9445 21.2455 97.8926 20.4049 97.8493 19.0184C97.7722 16.5948 97.8277 14.1672 97.8277 11.6957H99.6376C99.6471 11.8896 99.6633 12.0808 99.6633 12.2721C99.6647 14.1061 99.6633 15.9401 99.6647 17.7727C99.6674 19.458 100.411 20.0755 102.093 19.721C102.661 19.6014 103.194 19.3265 103.742 19.122C104.037 19.0118 104.109 18.798 104.106 18.4978C104.094 16.4168 104.1 14.3345 104.1 12.2535V11.6665L104.101 11.6678Z" fill="white"/>
<path d="M49.5711 10.5578C50.4578 10.757 51.2551 10.8912 52.0227 11.1209C52.6806 11.3175 52.9094 11.8566 52.7199 12.5047C52.6102 12.8792 52.3638 12.7358 52.1134 12.6734C51.4311 12.5021 50.7502 12.2936 50.0557 12.2112C49.6022 12.1568 49.1176 12.2604 48.66 12.3546C48.1118 12.4675 47.772 12.8261 47.711 13.3825C47.6488 13.9469 47.9371 14.36 48.4407 14.5698C49.1528 14.8659 49.8933 15.093 50.6216 15.352C50.9546 15.4702 51.2903 15.5804 51.6179 15.7119C53.8164 16.595 53.7325 19.3785 52.0471 20.5193C51.2389 21.0665 50.3305 21.2683 49.3667 21.2843C48.2904 21.3029 47.2454 21.1408 46.2585 20.7066C45.7292 20.4728 45.4517 19.773 45.7319 19.2936C45.7969 19.1807 46.1339 19.1488 46.3221 19.1873C47.1587 19.3586 47.9791 19.6322 48.8211 19.7398C49.3355 19.8048 49.8973 19.692 50.4104 19.5565C50.9641 19.4117 51.3391 19.0359 51.3797 18.4224C51.4216 17.8022 51.0967 17.4038 50.5485 17.1979C49.7782 16.9098 48.9863 16.676 48.2038 16.4171C47.2982 16.1183 46.5076 15.6787 46.0771 14.7849C45.4327 13.4463 45.9417 11.8951 47.3618 11.2125C48.0549 10.8805 48.8536 10.761 49.5697 10.5552L49.5711 10.5578Z" fill="white"/>
<path d="M65.3746 13.1766C64.6571 13.0465 64.0019 12.8778 63.3386 12.8234C62.7931 12.7782 62.2272 12.822 61.6857 12.915C61.2024 12.9987 60.8951 13.3333 60.8423 13.8433C60.7895 14.3426 60.979 14.7357 61.4393 14.9429C62.1581 15.2656 62.8986 15.5418 63.6297 15.8419C63.9248 15.9628 64.2158 16.0916 64.5069 16.2218C66.4454 17.0863 66.2302 19.7503 64.6951 20.6706C63.7041 21.2643 62.6252 21.3745 61.5219 21.2536C60.8085 21.1753 60.114 20.9482 59.4101 20.7875C59.0581 20.7065 58.92 20.5006 58.9647 20.1434C58.9958 19.8844 58.9714 19.6188 58.9714 19.3971C59.9746 19.5551 60.9466 19.745 61.9294 19.8486C62.368 19.8951 62.8404 19.818 63.2723 19.7065C63.807 19.5697 64.1075 19.1833 64.1576 18.6242C64.2077 18.0637 63.9261 17.7025 63.432 17.4993C62.6401 17.174 61.8346 16.8778 61.0373 16.567C59.9177 16.1301 59.1501 15.413 59.096 14.162C59.0324 12.7131 60.0978 11.6056 61.771 11.4077C62.8215 11.2829 63.8544 11.3997 64.8656 11.7331C65.2663 11.8645 65.4369 12.0677 65.3814 12.4794C65.3516 12.7025 65.376 12.9323 65.376 13.1793L65.3746 13.1766Z" fill="white"/>
<path d="M85.7659 20.9719H83.9424V11.6558C84.3878 11.6558 84.8074 11.6346 85.2217 11.6704C85.3286 11.6797 85.4748 11.8564 85.5073 11.9799C85.5872 12.276 85.6115 12.5868 85.6752 12.9998C86.7027 11.9161 87.8574 11.3477 89.3492 11.6412V13.2428C88.8186 13.2428 88.3028 13.2216 87.7884 13.2508C87.5068 13.2667 87.2225 13.3451 86.9545 13.434C85.8769 13.7926 85.7645 13.9546 85.7645 15.0502C85.7645 16.8165 85.7645 18.5841 85.7645 20.3504V20.9719H85.7659Z" fill="white"/>
<path d="M52.3488 23.3003C52.9147 23.3773 53.4805 23.4517 54.045 23.534C54.5446 23.6071 54.7869 23.9178 54.7585 24.3933C54.6475 26.2631 54.0383 27.9351 52.6764 29.3003C52.6182 29.3587 52.5573 29.4278 52.4828 29.457C52.3529 29.5101 52.2107 29.5367 52.074 29.5739C52.0659 29.4251 52.0117 29.2631 52.055 29.1316C52.3664 28.1768 52.6981 27.2273 53.023 26.2751C53.0446 26.2126 53.0609 26.1476 53.0717 26.0838C53.2477 25.0493 52.9986 24.6987 51.9129 24.6814C50.9558 24.6668 49.996 24.7757 49.0376 24.8076C48.779 24.8156 48.5177 24.7399 48.2578 24.704C48.45 24.5141 48.6098 24.2724 48.8386 24.1436C49.9202 23.5354 51.1088 23.3428 52.3488 23.3003Z" fill="white"/>
</g>
<defs>
<clipPath id="clip0_885_2435">
<rect width="105" height="22" fill="white" transform="translate(20 9)"/>
</clipPath>
</defs>
</svg>
